# xmcd
#
# Track frame offsets:
#	150
#	20881
#	39635
#	57045
#	75891
#	95383
#	116288
#	134114
#	142233
#	162894
#	184035
#
# Disc length: 2705 seconds
#
# Revision: 1
# Processed by: cddbd v1.4b42PL0 Copyright (c) Steve Scherf et al.
# Submitted via: audiograbber 1.80
#
DISCID=910a8f0b
DTITLE=Harper - Glass on the Stepping Stone
DYEAR=1900
DGENRE=
TTITLE0=Never Change the Way She Feels
TTITLE1=I'll Miss You
TTITLE2=Ain't Love Blind
TTITLE3=Glass on the Stepping Stone
TTITLE4=Perfection
TTITLE5=It's My Life
TTITLE6=Ordinary Guy
TTITLE7=Well I Know
TTITLE8=One Time
TTITLE9=No Problem
TTITLE10=Jennifer
EXTD=
EXTT0=
EXTT1=
EXTT2=
EXTT3=
EXTT4=
EXTT5=
EXTT6=
EXTT7=
EXTT8=
EXTT9=
EXTT10=
PLAYORDER=
